<?xml version="1.0" encoding="utf-8"?>
<svg version="1.0" width="50.000000pt" height="50.000000pt" viewBox="0 0 50.000000 50.000000" preserveAspectRatio="xMidYMid meet" xmlns="http://www.w3.org/2000/svg">
  <g transform="translate(0.000000,50.000000) scale(0.100000,-0.100000)" fill="#000000" stroke="none">
    <path d="M17 482 c-15 -16 -17 -48 -17 -234 0 -195 2 -216 18 -231 16 -15 48 -17 234 -17 195 0 216 2 231 18 15 16 17 48 17 234 0 195 -2 216 -18 231 -16 15 -48 17 -234 17 -195 0 -216 -2 -231 -18z m438 -232 l0 -205 -62 -3 -63 -3 0 81 0 80 30 0 c17 0 30 3 30 8 0 4 3 17 6 30 6 20 3 22 -30 22 -36 0 -37 1 -34 33 3 28 7 32 36 35 28 3 32 7 32 33 0 27 -3 29 -36 29 -49 0 -94 -45 -94 -94 0 -33 -2 -36 -30 -36 -27 0 -30 -3 -30 -30 0 -27 3 -30 30 -30 l30 0 0 -80 0 -81 -112 3 -113 3 -3 195 c-1 107 0 200 3 207 3 11 48 13 207 11 l203 -3 0 -205z" style="fill-rule: nonzero; fill: rgb(255, 255, 255);"/>
  </g>
</svg>