<?xml version="1.0" encoding="utf-8"?>
<svg version="1.0" width="50.000000pt" height="50.000000pt" viewBox="0 0 50.000000 50.000000" preserveAspectRatio="xMidYMid meet" xmlns="http://www.w3.org/2000/svg">
  <g transform="translate(0.000000,50.000000) scale(0.100000,-0.100000)" fill="#000000" stroke="none">
    <path d="M71 482 c-61 -33 -71 -67 -71 -232 0 -232 18 -250 250 -250 232 0 250 18 250 250 0 232 -18 250 -250 250 -122 0 -151 -3 -179 -18z m365 -46 l34 -34 0 -152 0 -152 -34 -34 -34 -34 -152 0 -152 0 -34 34 -34 34 0 152 0 152 34 34 34 34 152 0 152 0 34 -34z" style="fill: rgb(255, 255, 255);"/>
    <path d="M355 411 c-9 -30 5 -51 35 -51 30 0 44 21 35 51 -4 13 -16 19 -35 19 -19 0 -31 -6 -35 -19z" style="fill: rgb(255, 255, 255);"/>
    <path d="M190 368 c-36 -19 -49 -32 -64 -70 -19 -48 -19 -48 0 -95 16 -40 27 -52 67 -72 44 -21 52 -23 89 -12 51 16 83 48 98 98 11 35 10 46 -8 87 -17 37 -30 51 -64 66 -55 25 -64 25 -118 -2z m127 -33 c35 -23 49 -82 29 -128 -34 -83 -150 -85 -190 -3 -17 36 -18 43 -5 80 24 69 101 93 166 51z" style="fill: rgb(255, 255, 255);"/>
  </g>
</svg>