<?xml version="1.0" encoding="utf-8"?>
<svg version="1.0" width="50.000000pt" height="50.000000pt" viewBox="0 0 50.000000 50.000000" preserveAspectRatio="xMidYMid meet" xmlns="http://www.w3.org/2000/svg">
  <g transform="translate(0.000000,50.000000) scale(0.100000,-0.100000)" fill="#000000" stroke="none">
    <path d="M26 479 c-17 -13 -26 -30 -26 -49 0 -31 39 -70 71 -70 28 0 59 36 59 69 0 30 -38 71 -65 71 -7 0 -24 -9 -39 -21z m80 -24 c15 -23 15 -27 0 -50 -30 -45 -86 -28 -86 27 0 49 59 65 86 23z" style="fill: rgb(255, 255, 255);"/>
    <path d="M23 343 c-10 -3 -13 -47 -13 -168 0 -180 -2 -175 65 -175 24 0 38 6 45 19 5 11 10 82 10 160 0 114 -3 142 -16 155 -15 15 -65 20 -91 9z m87 -169 l0 -155 -41 3 -40 3 0 148 c0 81 1 149 1 152 0 3 18 5 40 5 l40 0 0 -156z" style="fill: rgb(255, 255, 255);"/>
    <path d="M174 337 c-2 -7 -3 -85 -2 -172 l3 -160 55 0 55 0 3 106 c2 91 6 109 22 124 17 15 24 16 45 7 24 -11 25 -14 25 -116 0 -119 5 -129 72 -124 l43 3 3 125 c3 135 -5 168 -46 200 -30 25 -117 27 -149 5 -19 -13 -22 -13 -27 0 -7 19 -94 21 -102 2z m256 -12 c16 -8 34 -24 40 -34 5 -11 10 -76 10 -145 l0 -126 -40 0 -40 0 0 102 c0 117 -10 138 -67 138 -29 0 -36 -5 -49 -35 -8 -21 -14 -68 -14 -120 l0 -85 -45 0 -45 0 0 155 0 155 45 0 c42 0 45 -2 45 -27 1 -25 2 -26 14 -11 17 23 66 48 94 48 13 0 36 -7 52 -15z" style="fill: rgb(255, 255, 255);"/>
  </g>
</svg>